<svg width="217" height="120" viewBox="0 0 217 120" xmlns="http://www.w3.org/2000/svg">
<g clip-path="url(#clip0_51_325)">
<path d="M177.215 39.7847C171.608 39.7877 166.065 40.9854 160.957 43.2983L155.481 33.5502C158.304 29.2398 162.422 25.9365 167.243 24.1158C172.413 22.1747 177.787 22.1704 182.56 24.0565C183.079 28.601 185.251 32.796 188.662 35.8437C192.073 38.8913 196.486 40.579 201.06 40.5858C201.883 40.5858 202.672 40.2589 203.254 39.6771C203.835 39.0953 204.162 38.3062 204.162 37.4834V31.3082H216.576V25.1033H204.166V18.8985H216.576V12.6894H204.166V6.48457C204.164 5.66323 203.836 4.87629 203.255 4.2963C202.673 3.71632 201.885 3.39062 201.064 3.39062C196.889 3.39663 192.838 4.80318 189.557 7.38509C186.277 9.967 183.958 13.5749 182.971 17.6312C177.094 15.8559 170.792 16.0975 165.068 18.3179C160.016 20.2335 155.559 23.4501 152.15 27.6421L149.382 22.7172L155.053 12.6343C155.348 12.0912 155.494 11.4802 155.477 10.8627H162.75C163.705 10.8604 164.619 10.4793 165.293 9.80314L168.908 6.18789C169.245 5.85311 169.512 5.45528 169.695 5.01712C169.878 4.57896 169.973 4.10905 169.975 3.63422C169.976 3.15939 169.884 2.68894 169.703 2.24972C169.523 1.81051 169.258 1.41113 168.923 1.0744C168.588 0.737674 168.19 0.470181 167.752 0.287198C167.314 0.104216 166.844 0.00932699 166.369 0.00794953C165.895 0.00657208 165.424 0.098733 164.985 0.27917C164.546 0.459608 164.146 0.724788 163.81 1.05957L161.267 3.60254H133.815C132.856 3.60254 131.936 3.98365 131.257 4.66204C130.579 5.34043 130.198 6.26052 130.198 7.21991C130.198 8.1793 130.579 9.09939 131.257 9.77778C131.936 10.4562 132.856 10.8373 133.815 10.8373H147.751L143.678 18.0847H70.5716L74.8099 7.23475H90.4195C91.3789 7.23475 92.2989 6.85363 92.9773 6.17524C93.6557 5.49685 94.0368 4.57676 94.0368 3.61737C94.0368 2.65799 93.6557 1.73789 92.9773 1.0595C92.2989 0.381115 91.3789 0 90.4195 0L69.8638 0L53.4278 42.2472C43.7957 38.7137 33.172 39.0303 23.7674 43.1311C14.3629 47.2318 6.90159 54.8009 2.93621 64.2634C-1.02918 73.7258 -1.1933 84.3529 2.478 93.9333C6.1493 103.514 13.3733 111.31 22.6468 115.699C31.9202 120.088 42.529 120.733 52.2656 117.498C62.0022 114.264 70.1168 107.4 74.9208 98.3342C79.7249 89.2687 80.8484 78.6999 78.0577 68.827C75.2669 58.9541 68.7768 50.5375 59.9378 45.3284L62.6079 38.4878L102.143 74.7421C101.569 76.2863 101.268 77.9182 101.253 79.5652C101.224 83.0978 102.493 86.5181 104.817 89.1784C107.141 91.8387 110.361 93.5543 113.865 94.0003C117.37 94.4463 120.916 93.5918 123.833 91.5986C126.749 89.6053 128.834 86.6118 129.691 83.1847H137.617C138.32 90.8644 141.241 98.174 146.024 104.224C150.807 110.273 157.246 114.802 164.556 117.258C171.866 119.714 179.733 119.992 187.198 118.058C194.664 116.123 201.406 112.06 206.604 106.364C211.801 100.667 215.231 93.5814 216.475 85.9705C217.718 78.3596 216.722 70.5513 213.608 63.4961C210.494 56.441 205.396 50.4435 198.934 46.2336C192.473 42.0237 184.927 39.7832 177.215 39.7847ZM197.962 9.98115V34.0164C195.299 33.327 192.94 31.7726 191.257 29.5975C189.573 27.4223 188.659 24.7495 188.659 21.9988C188.659 19.2481 189.573 16.5753 191.257 14.4001C192.94 12.225 195.299 10.6706 197.962 9.98115ZM72.3347 79.5652C72.3623 86.5202 70.1703 93.3027 66.0776 98.9261C61.9849 104.549 56.205 108.721 49.5784 110.833C42.9518 112.945 35.8242 112.888 29.2322 110.67C22.6403 108.452 16.9277 104.189 12.9255 98.5011C8.92321 92.813 6.83996 85.9964 6.97873 79.0427C7.11749 72.0891 9.47102 65.361 13.697 59.8371C17.923 54.3131 23.8011 50.2815 30.4763 48.3284C37.1515 46.3753 44.2757 46.6028 50.8127 48.9776L43.7899 67.0369L36.7756 77.5605C36.2433 78.3586 36.0499 79.3354 36.2379 80.2761C36.4259 81.2168 36.9798 82.0443 37.7779 82.5766C38.576 83.1088 39.5528 83.3022 40.4935 83.1142C41.4342 82.9262 42.2617 82.3723 42.7939 81.5742L50.0117 70.7242L57.2549 52.1605C61.8695 55.0926 65.6703 59.1408 68.3061 63.9308C70.9418 68.7208 72.3274 74.098 72.3347 79.5652ZM171.032 75.95H144.881C145.393 71.4334 146.845 67.074 149.144 63.1526C151.442 59.2313 154.537 55.8348 158.228 53.1819L171.032 75.95ZM145.229 30.0918L147.772 34.6098C146.597 36.5575 145.085 38.2798 143.305 39.6957L142.347 38.4454C142.03 37.9977 141.569 37.6717 141.041 37.5215L145.229 30.0918ZM65.4306 31.2573L67.7489 25.3237H139.613L117.15 65.2526C116.68 65.1806 116.206 65.1325 115.73 65.1085C112.245 65.1211 108.883 66.4033 106.275 68.7152L65.4306 31.2573ZM115.735 86.7788C114.304 86.7788 112.905 86.3545 111.715 85.5595C110.526 84.7646 109.598 83.6347 109.051 82.3127C108.503 80.9907 108.36 79.536 108.639 78.1326C108.918 76.7292 109.607 75.4401 110.619 74.4283C111.631 73.4165 112.92 72.7275 114.323 72.4483C115.727 72.1692 117.181 72.3124 118.503 72.86C119.825 73.4076 120.955 74.3349 121.75 75.5246C122.545 76.7144 122.969 78.1132 122.969 79.5441C122.972 80.4958 122.786 81.4386 122.424 82.3185C122.061 83.1985 121.529 83.9983 120.857 84.6723C120.185 85.3462 119.386 85.881 118.508 86.2461C117.629 86.6112 116.686 86.7994 115.735 86.8V86.7788ZM137.617 75.9288H129.691C129.479 75.1075 129.195 74.3063 128.844 73.5342L144.576 46.3414C147.099 44.8307 149.327 42.8766 151.154 40.5731L154.663 46.8118C149.859 50.121 145.841 54.4467 142.895 59.4824C139.949 64.518 138.147 70.1401 137.617 75.95V75.9288ZM177.215 112.094C169.212 112.084 161.493 109.129 155.529 103.793C149.565 98.4564 145.773 91.1119 144.877 83.1593H177.215C177.847 83.1593 178.467 82.9939 179.015 82.6795C179.563 82.3652 180.018 81.9128 180.337 81.3675C180.655 80.8222 180.826 80.203 180.83 79.5715C180.835 78.94 180.674 78.3183 180.364 77.7682L164.509 49.5879C168.95 47.7035 173.755 46.8301 178.576 47.0307C183.396 47.2313 188.112 48.501 192.381 50.748C196.651 52.9949 200.367 56.1628 203.262 60.0225C206.157 63.8822 208.157 68.3372 209.119 73.065C210.08 77.7929 209.979 82.6753 208.822 87.3592C207.665 92.043 205.481 96.411 202.428 100.147C199.376 103.883 195.531 106.894 191.172 108.962C186.813 111.029 182.048 112.102 177.224 112.103L177.215 112.094Z"/>
</g>
<defs>
<clipPath id="clip0_51_325">
<rect width="217" height="119.35" fill="white"/>
</clipPath>
</defs>
</svg>