<svg width="12" height="20" viewBox="0 0 12 20" xmlns="http://www.w3.org/2000/svg">
<path d="M7.41 10L11.21 6.21C11.3037 6.11704 11.3781 6.00644 11.4289 5.88458C11.4797 5.76272 11.5058 5.63201 11.5058 5.5C11.5058 5.36799 11.4797 5.23728 11.4289 5.11542C11.3781 4.99356 11.3037 4.88296 11.21 4.79L6.71 0.29C6.61489 0.19896 6.50275 0.127595 6.38 0.0800003C6.13654 -0.0200177 5.86346 -0.0200177 5.62 0.0800003C5.37565 0.181475 5.18147 0.375651 5.08 0.62C5.02876 0.740223 5.00158 0.869323 5 1V7.59L2.21 4.79C2.11676 4.69676 2.00607 4.6228 1.88425 4.57234C1.76243 4.52188 1.63186 4.49591 1.5 4.49591C1.36814 4.49591 1.23757 4.52188 1.11575 4.57234C0.993927 4.6228 0.883237 4.69676 0.789999 4.79C0.69676 4.88324 0.622799 4.99393 0.572339 5.11575C0.521879 5.23757 0.495907 5.36814 0.495907 5.5C0.495907 5.63186 0.521879 5.76243 0.572339 5.88425C0.622799 6.00607 0.69676 6.11676 0.789999 6.21L4.59 10L0.789999 13.79C0.69676 13.8832 0.622799 13.9939 0.572339 14.1158C0.521879 14.2376 0.495907 14.3681 0.495907 14.5C0.495907 14.6319 0.521879 14.7624 0.572339 14.8842C0.622799 15.0061 0.69676 15.1168 0.789999 15.21C0.883237 15.3032 0.993927 15.3772 1.11575 15.4277C1.23757 15.4781 1.36814 15.5041 1.5 15.5041C1.63186 15.5041 1.76243 15.4781 1.88425 15.4277C2.00607 15.3772 2.11676 15.3032 2.21 15.21L5 12.41V19C5.00158 19.1307 5.02876 19.2598 5.08 19.38C5.18147 19.6243 5.37565 19.8185 5.62 19.92C5.7397 19.9729 5.86913 20.0002 6 20.0002C6.13087 20.0002 6.2603 19.9729 6.38 19.92C6.50275 19.8724 6.61489 19.801 6.71 19.71L11.21 15.21C11.3037 15.117 11.3781 15.0064 11.4289 14.8846C11.4797 14.7627 11.5058 14.632 11.5058 14.5C11.5058 14.368 11.4797 14.2373 11.4289 14.1154C11.3781 13.9936 11.3037 13.883 11.21 13.79L7.41 10ZM7 3.41L9.09 5.5L7 7.59V3.41ZM7 16.59V12.41L9.09 14.5L7 16.59Z" />
</svg>