<svg width="11" height="7" viewBox="0 0 11 7" xmlns="http://www.w3.org/2000/svg">
<path d="M0.295797 5.9558C0.48316 6.14205 0.736611 6.24659 1.0008 6.24659C1.26498 6.24659 1.51843 6.14205 1.7058 5.9558L5.2958 2.4158L8.8358 5.9558C9.02316 6.14205 9.27661 6.24659 9.5408 6.24659C9.80498 6.24659 10.0584 6.14205 10.2458 5.9558C10.3395 5.86283 10.4139 5.75223 10.4647 5.63037C10.5155 5.50851 10.5416 5.37781 10.5416 5.2458C10.5416 5.11379 10.5155 4.98308 10.4647 4.86122C10.4139 4.73936 10.3395 4.62876 10.2458 4.5358L6.0058 0.295797C5.91283 0.202069 5.80223 0.127675 5.68037 0.0769062C5.55852 0.0261374 5.42781 -9.53674e-07 5.2958 -9.53674e-07C5.16379 -9.53674e-07 5.03308 0.0261374 4.91122 0.0769062C4.78936 0.127675 4.67876 0.202069 4.5858 0.295797L0.295797 4.5358C0.202069 4.62876 0.127675 4.73936 0.0769062 4.86122C0.0261374 4.98308 -1.90735e-06 5.11379 -1.90735e-06 5.2458C-1.90735e-06 5.37781 0.0261374 5.50851 0.0769062 5.63037C0.127675 5.75223 0.202069 5.86283 0.295797 5.9558Z"/>
</svg>