<svg width="60" height="34" viewBox="0 0 60 34" xmlns="http://www.w3.org/2000/svg">
<path d="M59.7101 12.6917C59.3911 12.2526 58.5503 11.8868 58.1154 11.9965C57.8689 12.0697 57.8544 11.8746 57.7964 7.81364L57.7529 3.56976L57.202 2.64293C56.3612 1.20391 55.1289 0.411234 53.2588 0.106358C52.6209 0.00879703 45.8797 -0.0155931 28.396 0.00879703C5.57739 0.0453822 4.37412 0.0575773 3.67826 0.264893C2.19954 0.716111 1.01077 1.69172 0.343894 3.00878C0.0539494 3.56976 0.0539494 3.88683 0.0104577 16.5697C-0.0185367 25.9721 0.0104577 29.7526 0.126436 30.2892C0.474369 31.7648 1.51817 32.9355 3.11287 33.594L3.9682 33.9477L28.6135 33.9843C56.0133 34.0208 54.0126 34.0696 55.5204 33.1672C56.4192 32.6184 56.9701 32.0209 57.4195 31.0696C57.7094 30.4599 57.7384 30.155 57.7964 26.6062L57.8544 22.7892H58.3038C58.9707 22.7892 59.4636 22.5331 59.739 22.0575C59.971 21.6794 60 21.1794 60 17.3624C60 13.3014 59.9855 13.0697 59.7101 12.6917ZM54.723 30.4599C54.4041 30.9599 53.5487 31.5452 53.0123 31.6306C52.7514 31.6672 41.7335 31.6794 28.5265 31.6672L4.53359 31.6306L3.9972 31.3257C3.70725 31.1672 3.34482 30.8257 3.17085 30.5818C2.88091 30.1306 2.88091 30.0696 2.9099 16.9112L2.9534 3.67951L3.34482 3.25269C4.17116 2.35025 1.95309 2.42342 29.0774 2.44781L53.4038 2.4844L53.8822 2.76488C54.1431 2.92342 54.4766 3.25269 54.636 3.49659C54.9115 3.93561 54.9115 4.32585 54.926 17.0331C54.926 28.2282 54.897 30.1672 54.723 30.4599Z"/>
<path d="M39.6604 4.55755C39.5734 4.52096 37.3263 4.50877 34.7023 4.52096L29.9183 4.55755L29.8748 17.0331L29.8458 29.4965H34.8473H39.8489V17.0575C39.8489 7.16729 39.8054 4.59413 39.6604 4.55755Z"/>
<path d="M27.9176 4.55755C27.8306 4.52096 25.5836 4.50877 22.9596 4.52096L18.1755 4.55755L18.132 17.0331L18.103 29.4965H23.1045H28.1061V17.0575C28.1061 7.16729 28.0626 4.59413 27.9176 4.55755Z"/>
<path d="M16.1749 4.55755C16.0879 4.52096 13.8408 4.50877 11.2168 4.52096L6.43273 4.55755L6.38924 17.0331L6.36024 29.4965H11.3618H16.3633V17.0575C16.3633 7.16729 16.3198 4.59413 16.1749 4.55755Z"/>
</svg>