<svg width="60" height="34" viewBox="0 0 60 34" fill="none" xmlns="http://www.w3.org/2000/svg">
<path d="M59.7315 12.6827C59.4559 12.2058 58.7887 11.8878 58.2375 11.9489L57.8314 11.9978L57.7734 7.77842C57.7153 3.73022 57.7008 3.5223 57.3817 2.84964C56.9321 1.85899 55.8442 0.905036 54.6403 0.403597L53.6685 0L28.8649 0L4.0614 0L3.08956 0.403597C1.90015 0.892806 0.812279 1.85899 0.333615 2.84964L0 3.54676L0 17L0 30.4532L0.333615 31.1626C0.812279 32.1532 1.98718 33.1928 3.14758 33.6453L4.0614 34H28.8649H53.6685L54.6403 33.5964C55.8442 33.095 56.9321 32.1288 57.3817 31.1504C57.7008 30.4899 57.7153 30.2576 57.7734 26.5885L57.8314 22.7237L58.165 22.7849C58.6872 22.8583 59.485 22.4791 59.746 22.0144C60.0942 21.4029 60.0797 13.282 59.7315 12.6827ZM54.7418 30.3554C54.5243 30.8446 54.0456 31.2482 53.3784 31.505C52.8272 31.7252 51.8263 31.7374 28.8939 31.7374C2.9155 31.7374 4.45303 31.7741 3.58273 31.0892C2.78496 30.4655 2.82847 31.187 2.82847 17C2.82847 2.56835 2.77045 3.48561 3.69877 2.83741C3.94536 2.65396 4.38051 2.45827 4.68511 2.38489C5.42487 2.21367 52.305 2.21367 53.0447 2.38489C53.7265 2.54388 54.4517 3.05755 54.6983 3.54676C54.9449 4.02374 55.0029 29.7928 54.7418 30.3554Z"/>
<path d="M46.561 4.46402H41.5568V17V29.536H46.561H51.5652V17V4.46402L46.561 4.46402Z"/>
<path d="M34.812 4.46402H29.8078V17V29.536H34.812H39.8162V17V4.46402L34.812 4.46402Z"/>
<path d="M23.0629 4.46402H18.0587V17V29.536H23.0629H28.0672V17V4.46402L23.0629 4.46402Z"/>
<path d="M11.3139 4.46402H6.30968L6.30968 17L6.30968 29.536H11.3139H16.3181V17V4.46402L11.3139 4.46402Z"/>
</svg>