<svg width="60" height="34" viewBox="0 0 60 34" xmlns="http://www.w3.org/2000/svg">
<path d="M59.7826 12.6949C59.5507 12.2302 58.8261 11.8755 58.2609 11.9489L57.8551 11.9978L57.7971 7.77839C57.7391 3.73019 57.7246 3.52227 57.4058 2.84961C56.9565 1.85896 55.8696 0.905005 54.6667 0.403567L53.6957 -3.05176e-05L28.913 -3.05176e-05L4.13044 -3.05176e-05L3.21739 0.354646C2.05797 0.807164 0.884058 1.84673 0.405797 2.83738L0.072464 3.54673L0.072464 17L0.072464 30.4532L0.405797 31.1503C0.884058 32.141 1.97101 33.1072 3.15942 33.5964L4.13044 34H28.913H53.6957L54.6667 33.5964C55.8696 33.0949 56.9565 32.1287 57.4058 31.1503C57.7246 30.4899 57.7391 30.2575 57.7971 26.5885L57.8551 22.7237L58.1884 22.7849C58.7101 22.8582 59.5072 22.4791 59.7681 22.0144C59.971 21.6719 60 20.987 60 17.3424C59.9855 13.9913 59.942 13.0007 59.7826 12.6949ZM54.7246 30.4287C54.4783 30.9424 53.7681 31.4439 53.0725 31.6151C52.3333 31.7863 5.49275 31.7863 4.75362 31.6151C4.44928 31.5417 4.01449 31.346 3.76812 31.1626C2.84058 30.5144 2.89855 31.4316 2.89855 17C2.89855 2.81292 2.85507 3.5345 3.65217 2.91076C4.52174 2.22587 3 2.26256 28.913 2.26256C54.8261 2.26256 53.3043 2.22587 54.1884 2.91076C54.942 3.49781 54.913 2.95968 54.9275 16.9755C54.9275 27.7381 54.8986 30.0985 54.7246 30.4287Z"/>
<path d="M11.3768 4.46399H6.37681V17V29.5359H11.3768H16.3768V17V4.46399H11.3768Z"/>
</svg>