<svg width="60" height="34" viewBox="0 0 60 34" xmlns="http://www.w3.org/2000/svg">
<path d="M59.7788 12.7187C59.518 12.2064 59.0252 11.938 58.373 11.938H57.8368L57.7788 7.76645C57.7209 3.80224 57.7064 3.54609 57.402 2.91182C57.2281 2.53369 56.8803 1.9848 56.6194 1.70426C56.0252 1.0212 54.6774 0.277145 53.7064 0.106379C53.1701 0.00879882 46.0541 -0.0155963 28.4599 0.00879883L3.967 0.0453915L3.11192 0.399121C1.51771 1.05779 0.474225 2.22876 0.126397 3.70466C0.0104545 4.24135 -0.0185311 8.0226 0.0104545 17.4269C0.053933 30.1124 0.053933 30.4295 0.343789 30.9906C1.01046 32.3079 2.19887 33.2837 3.67714 33.7351C4.37279 33.9424 5.5757 33.9546 28.3874 33.9912C45.8657 34.0156 52.6049 33.9912 53.2426 33.8936C55.1122 33.5887 56.3441 32.7958 57.1846 31.3565L57.7354 30.4295L57.7788 26.5507L57.8368 22.6719H58.373C58.9962 22.6719 59.46 22.4279 59.7644 21.94C60.0687 21.4399 60.0832 13.3041 59.7788 12.7187ZM54.5759 30.5393C54.3875 30.8076 53.9962 31.137 53.6774 31.2955L53.0977 31.5761L28.9236 31.5761C1.99597 31.5761 4.1554 31.6493 3.3438 30.7467L2.9525 30.3197L2.90902 17.0854L2.88003 3.85103L3.24235 3.33873C3.47424 2.985 3.80757 2.72885 4.22787 2.55809L4.85106 2.30194L28.8657 2.30194C45.5034 2.30194 52.9817 2.33853 53.2716 2.43611C53.7643 2.59468 54.2861 2.97281 54.6339 3.46071C54.8948 3.81444 54.9093 4.36333 54.9093 16.939V30.0514L54.5759 30.5393Z"/>
<path d="M23.0975 4.4975H18.0975L18.1265 16.9756L18.17 29.4415H23.0975H28.0251L28.0686 16.9756L28.0975 4.4975L23.0975 4.4975Z"/>
<path d="M11.3583 4.4975H6.35831L6.38729 16.9756L6.43077 29.4415H11.3583H16.2859L16.3294 16.9756L16.3584 4.4975L11.3583 4.4975Z"/>
</svg>