<svg width="34" height="34" viewBox="0 0 34 34" xmlns="http://www.w3.org/2000/svg">
<path d="M17 2.125C17 1.56141 16.7761 1.02091 16.3776 0.622399C15.9791 0.223884 15.4386 0 14.875 0C14.3114 0 13.7709 0.223884 13.3724 0.622399C12.9739 1.02091 12.75 1.56141 12.75 2.125C12.75 4.94293 11.6306 7.64544 9.63801 9.63801C7.64544 11.6306 4.94292 12.75 2.125 12.75C1.56142 12.75 1.02091 12.9739 0.622394 13.3724C0.223881 13.7709 -2.38418e-07 14.3114 -2.38418e-07 14.875C-2.38418e-07 15.4386 0.223881 15.9791 0.622394 16.3776C1.02091 16.7761 1.56142 17 2.125 17C6.0701 17 9.85361 15.4328 12.6432 12.6432C15.4328 9.85361 17 6.0701 17 2.125ZM25.5 2.125C25.5 1.56141 25.2761 1.02091 24.8776 0.622399C24.4791 0.223884 23.9386 0 23.375 0C22.8114 0 22.2709 0.223884 21.8724 0.622399C21.4739 1.02091 21.25 1.56141 21.25 2.125C21.25 7.19727 19.2351 12.0618 15.6484 15.6484C12.0618 19.2351 7.19726 21.25 2.125 21.25C1.56142 21.25 1.02091 21.4739 0.622394 21.8724C0.223881 22.2709 -2.38418e-07 22.8114 -2.38418e-07 23.375C-2.38418e-07 23.9386 0.223881 24.4791 0.622394 24.8776C1.02091 25.2761 1.56142 25.5 2.125 25.5C8.32153 25.4835 14.2618 23.025 18.6575 18.6575C23.025 14.2618 25.4835 8.32153 25.5 2.125ZM24.6712 24.6712C30.6265 18.6762 33.9784 10.5752 34 2.125C34 1.56141 33.7761 1.02091 33.3776 0.622399C32.9791 0.223884 32.4386 0 31.875 0C31.3114 0 30.7709 0.223884 30.3724 0.622399C29.9739 1.02091 29.75 1.56141 29.75 2.125C29.75 9.45161 26.8395 16.4781 21.6588 21.6588C16.4781 26.8395 9.45161 29.75 2.125 29.75C1.56142 29.75 1.02091 29.9739 0.622394 30.3724C0.223881 30.7709 -2.38418e-07 31.3114 -2.38418e-07 31.875C-2.38418e-07 32.4386 0.223881 32.9791 0.622394 33.3776C1.02091 33.7761 1.56142 34 2.125 34C10.5752 33.9784 18.6762 30.6265 24.6712 24.6712Z"/>
</svg>